<?xml version="1.0" encoding="utf-8"?>
<!-- Generator: Adobe Illustrator 24.0.0, SVG Export Plug-In . SVG Version: 6.00 Build 0)  -->
<svg version="1.1" id="Livello_2" xmlns="http://www.w3.org/2000/svg" xmlns:xlink="http://www.w3.org/1999/xlink" x="0px" y="0px"
	 viewBox="0 0 255.12 85.04" style="enable-background:new 0 0 255.12 85.04;" xml:space="preserve">
<style type="text/css">
	.st0{fill:#848642;}
	.st1{fill:#FFCC2E;}
</style>
<g>
	<g>
		<path d="M9.73,18.13h4.32v5.8c1.5-2.14,3.05-3.7,4.63-4.69c2.18-1.32,4.48-1.97,6.89-1.97c1.63,0,3.17,0.32,4.63,0.96
			c1.46,0.64,2.66,1.49,3.58,2.55c0.93,1.06,1.73,2.58,2.41,4.55c1.44-2.63,3.23-4.63,5.39-6c2.15-1.37,4.47-2.05,6.96-2.05
			c2.32,0,4.37,0.59,6.14,1.76c1.77,1.17,3.09,2.81,3.96,4.91c0.86,2.1,1.29,5.25,1.29,9.44v18.33h-4.41V33.38
			c0-3.6-0.26-6.07-0.77-7.42c-0.51-1.35-1.39-2.43-2.63-3.25c-1.24-0.82-2.72-1.24-4.44-1.24c-2.09,0-4,0.62-5.74,1.85
			c-1.73,1.23-3,2.88-3.8,4.94c-0.8,2.06-1.2,5.49-1.2,10.31v13.15h-4.32V34.52c0-4.05-0.25-6.81-0.76-8.26
			c-0.5-1.45-1.38-2.61-2.64-3.49c-1.26-0.88-2.75-1.31-4.47-1.31c-2,0-3.86,0.6-5.6,1.8c-1.74,1.2-3.02,2.82-3.86,4.86
			c-0.83,2.04-1.25,5.15-1.25,9.35v14.22H9.73V18.13z"/>
		<path d="M102.49,18.13v33.57h-4.26v-5.77c-1.81,2.2-3.84,3.86-6.09,4.97c-2.25,1.11-4.72,1.67-7.39,1.67
			c-4.75,0-8.81-1.72-12.17-5.17c-3.36-3.44-5.04-7.63-5.04-12.57c0-4.83,1.7-8.97,5.09-12.41c3.39-3.44,7.48-5.15,12.25-5.15
			c2.76,0,5.25,0.59,7.48,1.76c2.23,1.17,4.19,2.93,5.88,5.28v-6.17H102.49z M85.22,21.44c-2.4,0-4.62,0.59-6.66,1.77
			c-2.03,1.18-3.65,2.84-4.85,4.98c-1.2,2.14-1.8,4.4-1.8,6.78c0,2.36,0.61,4.62,1.82,6.78c1.21,2.16,2.84,3.84,4.88,5.04
			c2.05,1.2,4.24,1.8,6.58,1.8c2.36,0,4.6-0.6,6.72-1.79c2.12-1.19,3.74-2.8,4.89-4.84c1.14-2.04,1.71-4.33,1.71-6.88
			c0-3.88-1.28-7.13-3.84-9.74C92.11,22.74,88.96,21.44,85.22,21.44z"/>
		<path d="M112.18,5.17h4.32v26.51l15.57-13.55h6.35l-18.46,16.02l19.53,17.56h-6.08L116.5,36.59v15.12h-4.32V5.17z"/>
		<path d="M177.38,18.13v33.57h-4.26v-5.77c-1.81,2.2-3.84,3.86-6.09,4.97c-2.25,1.11-4.72,1.67-7.39,1.67
			c-4.75,0-8.81-1.72-12.18-5.17c-3.36-3.44-5.05-7.63-5.05-12.57c0-4.83,1.7-8.97,5.09-12.41c3.39-3.44,7.48-5.15,12.25-5.15
			c2.76,0,5.25,0.59,7.48,1.76c2.23,1.17,4.19,2.93,5.88,5.28v-6.17H177.38z M160.12,21.44c-2.4,0-4.62,0.59-6.66,1.77
			c-2.04,1.18-3.65,2.84-4.85,4.98c-1.2,2.14-1.8,4.4-1.8,6.78c0,2.36,0.61,4.62,1.82,6.78c1.21,2.16,2.84,3.84,4.89,5.04
			c2.04,1.2,4.24,1.8,6.58,1.8c2.37,0,4.6-0.6,6.72-1.79c2.12-1.19,3.74-2.8,4.88-4.84c1.14-2.04,1.71-4.33,1.71-6.88
			c0-3.88-1.28-7.13-3.84-9.74C167.01,22.74,163.86,21.44,160.12,21.44z"/>
	</g>
	<g>
		<path d="M9.33,60.32h1.21v14.49H9.33V60.32z"/>
		<path d="M22.08,64.36v10.46h-1.19v-1.8c-0.51,0.69-1.08,1.2-1.71,1.55c-0.63,0.35-1.32,0.52-2.07,0.52
			c-1.33,0-2.47-0.54-3.41-1.61c-0.94-1.07-1.41-2.38-1.41-3.92c0-1.5,0.48-2.79,1.43-3.86c0.95-1.07,2.1-1.61,3.43-1.61
			c0.77,0,1.47,0.18,2.1,0.55c0.63,0.37,1.17,0.91,1.65,1.64v-1.92H22.08z M17.24,65.39c-0.67,0-1.3,0.18-1.87,0.55
			c-0.57,0.37-1.03,0.89-1.36,1.55c-0.34,0.66-0.5,1.37-0.5,2.11c0,0.74,0.17,1.44,0.51,2.11c0.34,0.67,0.79,1.2,1.37,1.57
			c0.57,0.37,1.19,0.56,1.85,0.56c0.66,0,1.29-0.19,1.88-0.55c0.59-0.37,1.05-0.88,1.37-1.51c0.32-0.63,0.48-1.35,0.48-2.14
			c0-1.21-0.36-2.22-1.08-3.03C19.17,65.79,18.29,65.39,17.24,65.39z"/>
		<path d="M24.45,64.36h1.21v1.87c0.48-0.72,1.02-1.25,1.61-1.61c0.59-0.35,1.23-0.53,1.92-0.53c0.7,0,1.33,0.2,1.87,0.6
			c0.54,0.4,0.95,0.93,1.21,1.61c0.26,0.67,0.39,1.72,0.39,3.14v5.38h-1.21v-4.99c0-1.21-0.05-2.01-0.13-2.41
			c-0.14-0.69-0.41-1.21-0.81-1.56c-0.4-0.35-0.92-0.52-1.56-0.52c-0.73,0-1.39,0.27-1.97,0.81c-0.58,0.54-0.96,1.21-1.15,2
			c-0.12,0.52-0.17,1.47-0.17,2.85v3.84h-1.21V64.36z"/>
		<path d="M43.03,64.36h1.21v8.33c0,1.47-0.12,2.54-0.35,3.22c-0.32,0.96-0.87,1.7-1.65,2.22c-0.79,0.52-1.73,0.78-2.83,0.78
			c-0.81,0-1.53-0.13-2.18-0.38c-0.64-0.26-1.17-0.6-1.57-1.02c-0.4-0.43-0.78-1.05-1.12-1.87h1.31c0.36,0.69,0.82,1.2,1.39,1.54
			c0.57,0.33,1.27,0.5,2.1,0.5c0.83,0,1.52-0.17,2.09-0.51c0.57-0.34,0.98-0.77,1.22-1.29c0.24-0.52,0.36-1.35,0.36-2.5v-0.54
			c-0.46,0.64-1.01,1.13-1.67,1.48c-0.66,0.34-1.36,0.51-2.1,0.51c-0.87,0-1.68-0.24-2.44-0.72c-0.76-0.47-1.35-1.12-1.77-1.92
			c-0.42-0.81-0.62-1.7-0.62-2.66c0-0.97,0.22-1.87,0.65-2.71c0.43-0.84,1.03-1.5,1.8-1.99c0.76-0.49,1.57-0.73,2.42-0.73
			c0.7,0,1.36,0.16,1.97,0.49c0.61,0.32,1.2,0.86,1.76,1.6V64.36z M39.46,65.39c-0.69,0-1.32,0.19-1.91,0.55
			c-0.59,0.37-1.05,0.88-1.38,1.53c-0.33,0.65-0.5,1.35-0.5,2.11c0,1.15,0.35,2.09,1.04,2.84c0.69,0.75,1.59,1.12,2.69,1.12
			c1.11,0,2.01-0.37,2.69-1.11c0.68-0.74,1.02-1.72,1.02-2.93c0-0.79-0.16-1.49-0.47-2.11c-0.31-0.62-0.75-1.11-1.32-1.47
			C40.73,65.57,40.12,65.39,39.46,65.39z"/>
		<path d="M46.34,64.36h1.21v4.88c0,1.19,0.06,2.01,0.17,2.46c0.17,0.64,0.5,1.15,0.99,1.52c0.49,0.37,1.07,0.56,1.75,0.56
			c0.68,0,1.25-0.18,1.72-0.54c0.47-0.36,0.8-0.84,0.98-1.43c0.12-0.4,0.18-1.26,0.18-2.57v-4.88h1.24v5.13
			c0,1.44-0.15,2.53-0.45,3.26c-0.3,0.73-0.76,1.3-1.37,1.72c-0.61,0.41-1.37,0.62-2.29,0.62c-0.92,0-1.68-0.21-2.3-0.62
			c-0.61-0.42-1.07-1-1.38-1.73c-0.3-0.74-0.45-1.85-0.45-3.34V64.36z"/>
		<path d="M66.31,64.36v10.46h-1.19v-1.8c-0.51,0.69-1.08,1.2-1.71,1.55c-0.63,0.35-1.32,0.52-2.07,0.52
			c-1.33,0-2.47-0.54-3.41-1.61c-0.94-1.07-1.41-2.38-1.41-3.92c0-1.5,0.48-2.79,1.43-3.86c0.95-1.07,2.1-1.61,3.43-1.61
			c0.77,0,1.47,0.18,2.1,0.55c0.62,0.37,1.18,0.91,1.65,1.64v-1.92H66.31z M61.47,65.39c-0.67,0-1.3,0.18-1.87,0.55
			c-0.57,0.37-1.02,0.89-1.36,1.55c-0.34,0.66-0.5,1.37-0.5,2.11c0,0.74,0.17,1.44,0.51,2.11c0.34,0.67,0.8,1.2,1.37,1.57
			c0.57,0.37,1.19,0.56,1.84,0.56c0.66,0,1.29-0.19,1.88-0.55c0.59-0.37,1.05-0.88,1.37-1.51c0.32-0.63,0.48-1.35,0.48-2.14
			c0-1.21-0.36-2.22-1.08-3.03C63.4,65.79,62.52,65.39,61.47,65.39z"/>
		<path d="M76.79,64.36H78v8.33c0,1.47-0.12,2.54-0.35,3.22c-0.32,0.96-0.87,1.7-1.65,2.22c-0.78,0.52-1.73,0.78-2.83,0.78
			c-0.81,0-1.53-0.13-2.18-0.38c-0.64-0.26-1.17-0.6-1.57-1.02c-0.4-0.43-0.77-1.05-1.11-1.87h1.31c0.36,0.69,0.82,1.2,1.39,1.54
			c0.57,0.33,1.27,0.5,2.1,0.5c0.83,0,1.52-0.17,2.09-0.51c0.57-0.34,0.97-0.77,1.22-1.29c0.24-0.52,0.36-1.35,0.36-2.5v-0.54
			c-0.46,0.64-1.01,1.13-1.67,1.48c-0.66,0.34-1.36,0.51-2.09,0.51c-0.87,0-1.68-0.24-2.44-0.72c-0.76-0.47-1.35-1.12-1.77-1.92
			c-0.42-0.81-0.62-1.7-0.62-2.66c0-0.97,0.22-1.87,0.65-2.71c0.43-0.84,1.03-1.5,1.8-1.99c0.77-0.49,1.57-0.73,2.42-0.73
			c0.7,0,1.36,0.16,1.97,0.49c0.61,0.32,1.2,0.86,1.76,1.6V64.36z M73.22,65.39c-0.69,0-1.32,0.19-1.91,0.55
			c-0.59,0.37-1.05,0.88-1.38,1.53c-0.33,0.65-0.5,1.35-0.5,2.11c0,1.15,0.35,2.09,1.04,2.84c0.69,0.75,1.59,1.12,2.69,1.12
			c1.11,0,2.01-0.37,2.69-1.11c0.68-0.74,1.01-1.72,1.01-2.93c0-0.79-0.16-1.49-0.47-2.11c-0.31-0.62-0.75-1.11-1.32-1.47
			C74.49,65.57,73.88,65.39,73.22,65.39z"/>
		<path d="M88.18,71.35l1.02,0.6c-0.33,0.73-0.72,1.32-1.16,1.77c-0.44,0.45-0.93,0.79-1.48,1.03c-0.55,0.23-1.17,0.35-1.86,0.35
			c-1.53,0-2.73-0.56-3.6-1.68c-0.86-1.12-1.3-2.38-1.3-3.79c0-1.33,0.37-2.51,1.1-3.55c0.93-1.32,2.17-1.98,3.73-1.98
			c1.6,0,2.88,0.68,3.84,2.03c0.68,0.96,1.03,2.15,1.04,3.57h-8.47c0.02,1.21,0.37,2.21,1.05,2.99c0.68,0.78,1.51,1.17,2.5,1.17
			c0.48,0,0.95-0.09,1.4-0.28c0.45-0.19,0.84-0.43,1.16-0.74C87.47,72.52,87.81,72.03,88.18,71.35z M88.18,68.53
			c-0.16-0.72-0.4-1.29-0.71-1.72c-0.31-0.43-0.72-0.78-1.23-1.04c-0.51-0.26-1.04-0.39-1.6-0.39c-0.92,0-1.72,0.33-2.38,0.99
			c-0.49,0.48-0.85,1.2-1.1,2.16H88.18z"/>
		<path d="M105.14,66.53l-0.96,0.66c-0.83-1.22-1.96-1.84-3.4-1.84c-1.15,0-2.1,0.41-2.85,1.23c-0.76,0.82-1.14,1.82-1.14,2.99
			c0,0.76,0.17,1.48,0.52,2.15c0.35,0.67,0.83,1.2,1.43,1.57c0.61,0.37,1.29,0.55,2.04,0.55c1.38,0,2.51-0.61,3.39-1.84l0.96,0.7
			c-0.45,0.75-1.05,1.34-1.81,1.75c-0.76,0.41-1.62,0.62-2.59,0.62c-1.49,0-2.72-0.53-3.7-1.58c-0.98-1.05-1.47-2.33-1.47-3.83
			c0-1.01,0.23-1.95,0.69-2.82c0.46-0.87,1.09-1.55,1.89-2.04c0.8-0.49,1.7-0.73,2.69-0.73c0.62,0,1.22,0.11,1.8,0.32
			s1.07,0.49,1.47,0.83C104.51,65.57,104.86,66.01,105.14,66.53z"/>
		<path d="M111.59,64.09c1.45,0,2.65,0.58,3.6,1.75c0.87,1.06,1.3,2.32,1.3,3.78c0,1.46-0.46,2.74-1.37,3.83
			c-0.92,1.09-2.09,1.64-3.53,1.64c-1.45,0-2.62-0.55-3.54-1.64c-0.92-1.09-1.37-2.37-1.37-3.83c0-1.45,0.43-2.71,1.3-3.77
			C108.93,64.68,110.13,64.09,111.59,64.09z M111.58,65.41c-1.01,0-1.87,0.41-2.6,1.24c-0.72,0.83-1.08,1.82-1.08,3
			c0,0.76,0.16,1.46,0.49,2.12c0.33,0.65,0.78,1.16,1.34,1.51c0.56,0.35,1.18,0.53,1.85,0.53s1.29-0.18,1.85-0.53
			c0.56-0.36,1.01-0.86,1.34-1.51c0.33-0.66,0.49-1.36,0.49-2.12c0-1.17-0.36-2.17-1.09-3C113.45,65.82,112.58,65.41,111.58,65.41z"
			/>
		<path d="M118.39,64.36h1.21v1.87c0.48-0.72,1.02-1.25,1.61-1.61c0.59-0.35,1.23-0.53,1.92-0.53c0.7,0,1.33,0.2,1.87,0.6
			c0.54,0.4,0.95,0.93,1.21,1.61c0.26,0.67,0.39,1.72,0.39,3.14v5.38h-1.21v-4.99c0-1.21-0.04-2.01-0.13-2.41
			c-0.14-0.69-0.41-1.21-0.81-1.56c-0.4-0.35-0.92-0.52-1.56-0.52c-0.73,0-1.39,0.27-1.97,0.81c-0.58,0.54-0.96,1.21-1.15,2
			c-0.12,0.52-0.17,1.47-0.17,2.85v3.84h-1.21V64.36z"/>
		<path d="M133.59,65.5l-0.78,0.89c-0.65-0.7-1.28-1.05-1.9-1.05c-0.39,0-0.73,0.14-1.01,0.43c-0.28,0.29-0.42,0.62-0.42,1.01
			c0,0.34,0.12,0.67,0.35,0.97c0.23,0.32,0.72,0.68,1.46,1.11c0.9,0.52,1.52,1.02,1.84,1.5c0.32,0.49,0.48,1.04,0.48,1.64
			c0,0.86-0.27,1.59-0.82,2.18c-0.54,0.6-1.22,0.89-2.04,0.89c-0.54,0-1.06-0.13-1.56-0.39c-0.49-0.26-0.9-0.62-1.23-1.09l0.76-0.96
			c0.62,0.77,1.27,1.16,1.97,1.16c0.48,0,0.9-0.17,1.24-0.52c0.34-0.35,0.51-0.76,0.51-1.22c0-0.38-0.11-0.73-0.34-1.03
			c-0.23-0.29-0.73-0.66-1.53-1.12c-0.85-0.49-1.43-0.97-1.73-1.44c-0.31-0.47-0.46-1.01-0.46-1.62c0-0.79,0.24-1.46,0.73-1.98
			c0.49-0.53,1.11-0.79,1.85-0.79C131.84,64.09,132.71,64.56,133.59,65.5z"/>
		<path d="M135.23,64.36h1.21v4.88c0,1.19,0.06,2.01,0.17,2.46c0.17,0.64,0.5,1.15,0.99,1.52c0.49,0.37,1.07,0.56,1.75,0.56
			c0.68,0,1.25-0.18,1.72-0.54c0.47-0.36,0.8-0.84,0.97-1.43c0.12-0.4,0.18-1.26,0.18-2.57v-4.88h1.24v5.13
			c0,1.44-0.15,2.53-0.45,3.26c-0.3,0.73-0.76,1.3-1.37,1.72c-0.61,0.41-1.37,0.62-2.29,0.62c-0.92,0-1.68-0.21-2.3-0.62
			c-0.61-0.42-1.07-1-1.37-1.73c-0.3-0.74-0.46-1.85-0.46-3.34V64.36z"/>
		<path d="M145.64,60.32h1.21v14.49h-1.21V60.32z"/>
		<path d="M150.06,60.48h1.21v3.88h1.92v1.16h-1.92v9.29h-1.21v-9.29h-1.65v-1.16h1.65V60.48z"/>
		<path d="M155.1,60.05c0.27,0,0.51,0.11,0.71,0.33c0.2,0.22,0.29,0.48,0.29,0.79c0,0.3-0.1,0.56-0.29,0.78
			c-0.2,0.22-0.43,0.33-0.71,0.33c-0.27,0-0.5-0.11-0.7-0.33c-0.2-0.22-0.29-0.48-0.29-0.78c0-0.31,0.1-0.57,0.29-0.79
			C154.59,60.16,154.82,60.05,155.1,60.05z M154.49,64.36h1.21v10.46h-1.21V64.36z"/>
		<path d="M157.87,64.36h1.21v1.87c0.49-0.72,1.02-1.25,1.61-1.61c0.59-0.35,1.22-0.53,1.92-0.53c0.7,0,1.33,0.2,1.87,0.6
			c0.54,0.4,0.95,0.93,1.21,1.61c0.26,0.67,0.39,1.72,0.39,3.14v5.38h-1.21v-4.99c0-1.21-0.04-2.01-0.13-2.41
			c-0.14-0.69-0.41-1.21-0.81-1.56c-0.4-0.35-0.92-0.52-1.56-0.52c-0.73,0-1.39,0.27-1.97,0.81c-0.58,0.54-0.96,1.21-1.15,2
			c-0.11,0.52-0.17,1.47-0.17,2.85v3.84h-1.21V64.36z"/>
		<path d="M176.45,64.36h1.22v8.33c0,1.47-0.12,2.54-0.35,3.22c-0.32,0.96-0.87,1.7-1.65,2.22c-0.78,0.52-1.73,0.78-2.83,0.78
			c-0.81,0-1.53-0.13-2.18-0.38c-0.64-0.26-1.17-0.6-1.57-1.02c-0.4-0.43-0.78-1.05-1.11-1.87h1.31c0.36,0.69,0.82,1.2,1.38,1.54
			c0.56,0.33,1.27,0.5,2.11,0.5c0.82,0,1.52-0.17,2.09-0.51c0.57-0.34,0.97-0.77,1.22-1.29c0.24-0.52,0.36-1.35,0.36-2.5v-0.54
			c-0.45,0.64-1.01,1.13-1.67,1.48c-0.66,0.34-1.36,0.51-2.1,0.51c-0.87,0-1.68-0.24-2.44-0.72c-0.76-0.47-1.35-1.12-1.77-1.92
			c-0.41-0.81-0.62-1.7-0.62-2.66c0-0.97,0.21-1.87,0.65-2.71c0.43-0.84,1.03-1.5,1.79-1.99c0.76-0.49,1.57-0.73,2.42-0.73
			c0.71,0,1.36,0.16,1.97,0.49c0.61,0.32,1.19,0.86,1.76,1.6V64.36z M172.88,65.39c-0.69,0-1.32,0.19-1.91,0.55
			c-0.59,0.37-1.05,0.88-1.38,1.53c-0.34,0.65-0.5,1.35-0.5,2.11c0,1.15,0.35,2.09,1.04,2.84c0.69,0.75,1.59,1.12,2.69,1.12
			c1.11,0,2.01-0.37,2.69-1.11c0.68-0.74,1.02-1.72,1.02-2.93c0-0.79-0.16-1.49-0.47-2.11c-0.31-0.62-0.75-1.11-1.32-1.47
			C174.15,65.57,173.54,65.39,172.88,65.39z"/>
	</g>
	<g>
		<path d="M216.41,17.7c-16.39,0-29.66,12.85-29.66,28.72c0,15.89,13.27,28.75,29.66,28.75c16.39,0,29.66-12.86,29.66-28.75
			C246.07,30.55,232.79,17.7,216.41,17.7"/>
		<path class="st0" d="M222.57,22.94c-9.36,0-16.97,7.62-16.97,16.98c0,9.38,7.61,17,16.97,17c9.38,0,17-7.62,17-17
			C239.57,30.56,231.96,22.94,222.57,22.94"/>
		<path class="st1" d="M225.59,26.21c-6.04,0-10.94,4.9-10.94,10.94s4.9,10.94,10.94,10.94s10.94-4.9,10.94-10.94
			S231.63,26.21,225.59,26.21"/>
	</g>
</g>
</svg>
